<mxfile host="app.diagrams.net" modified="2023-03-25T01:42:26.606Z" agent="Mozilla/5.0 (Macintosh; Intel Mac OS X 10_15_7) AppleWebKit/605.1.15 (KHTML, like Gecko) Version/15.6 Safari/605.1.15" version="21.1.1" etag="aWewmAoWlc8B5DlF_XGd" type="github">
  <diagram name="Page-1" id="MYDz_bUwaR8iT0uoGK41">
    <mxGraphModel>
      <root>
        <mxCell id="0" />
        <mxCell id="1" parent="0" />
      </root>
    </mxGraphModel>
  </diagram>
</mxfile>
